#!OML:ASF H:\Punching\Project 1\Capture day 1\Session 1\female.ASF
:FULLY-SPECIFIED
:DEGREES
294
root -6.55667 15.8486 8.40345 10.8471 -30.7927 -0.138434
lowerback -8.58863 1.99888 1.02234
upperback -7.04769 2.49662 -1.41345
thorax -2.39057 1.14637 -1.87233
lowerneck -14.94 5.42089 11.9159
upperneck 39.3228 6.16347 -5.31111
head 17.6428 3.47128 -3.40836
rclavicle -5.20816e-014 8.34896e-015
rhumerus -40.634 -10.6931 -74.552
rradius 31.0921
rwrist 5.93705
rhand -11.0119 -4.11676
rfingers 7.12502
rthumb 15.0091 -33.5528
lclavicle -5.20816e-014 8.34896e-015
lhumerus -54.2682 18.4647 60.5917
lradius 26.8525
lwrist -26.7858
lhand -2.96658 11.5984
lfingers 7.12502
lthumb 22.746 40.2775
rfemur -4.0968 -0.98636 20.0441
rtibia 41.0359
rfoot -0.311688 5.90586
rtoes -15.0471
lfemur -25.4136 -0.987481 -25.4887
ltibia 18.1414
lfoot -6.71695 14.6368
ltoes 11.0037
295
root -6.59159 15.8644 8.53195 10.566 -31.0845 0.284133
lowerback -8.48187 1.99896 0.635469
upperback -7.05065 2.51882 -1.45877
thorax -2.46513 1.17033 -1.70515
lowerneck -14.9271 5.48262 11.9596
upperneck 39.3125 6.26928 -5.36751
head 17.6536 3.51313 -3.42116
rclavicle -1.19271e-014 -1.19271e-015
rhumerus -40.8456 -11.1155 -74.0199
rradius 30.5365
rwrist 6.43535
rhand -10.8137 -3.92189
rfingers 7.12502
rthumb 15.1999 -33.3436
lclavicle -1.19271e-014 -1.19271e-015
lhumerus -54.101 18.3574 60.7674
lradius 27.0185
lwrist -26.6254
lhand -2.79076 11.605
lfingers 7.12502
lthumb 22.9148 40.2634
rfemur -5.81828 -0.949728 19.3233
rtibia 44.1796
rfoot 2.05135 6.16924
rtoes -13.4449
lfemur -24.2798 -0.440827 -26.1686
ltibia 17.1293
lfoot -6.56567 14.2467
ltoes 11.1298
296
root -6.62575 15.8794 8.65735 10.2713 -31.3799 0.709993
lowerback -8.35025 1.99459 0.25377
upperback -7.03105 2.53434 -1.50907
thorax -2.53011 1.1912 -1.54696
lowerneck -14.9358 5.55556 12.0124
upperneck 39.2777 6.38775 -5.42813
head 17.6588 3.56018 -3.43373
rclavicle 1.19271e-014 -9.93923e-015
rhumerus -41.0087 -11.5028 -73.5288
rradius 30.0161
rwrist 6.94852
rhand -10.6526 -3.77032
rfingers 7.12502
rthumb 15.3551 -33.1802
lclavicle 1.19271e-014 -9.93923e-015
lhumerus -53.8459 18.1729 61.0377
lradius 27.2065
lwrist -26.3586
lhand -2.68546 11.597
lfingers 7.12502
lthumb 23.0158 40.2427
rfemur -7.57825 -0.908307 18.6307
rtibia 47.2829
rfoot 4.30656 6.23964
rtoes -11.925
lfemur -23.1083 0.0608431 -26.8259
ltibia 16.0376
lfoot -6.37557 13.9245
ltoes 11.1774
297
root -6.65933 15.8928 8.78013 9.92914 -31.6555 1.17603
lowerback -8.17893 1.97912 -0.152026
upperback -6.99494 2.53545 -1.57038
thorax -2.60108 1.20584 -1.38875
lowerneck -14.9492 5.63389 12.0712
upperneck 39.2233 6.51359 -5.49393
head 17.656 3.61 -3.44742
rclavicle 8.73659e-014 2.72335e-014
rhumerus -41.1443 -11.8585 -73.0667
rradius 29.5318
rwrist 7.48243
rhand -10.544 -3.62943
rfingers 7.12502
rthumb 15.4598 -33.0312
lclavicle 8.73659e-014 2.72335e-014
lhumerus -53.558 17.9365 61.3659
lradius 27.464
lwrist -26.0345
lhand -2.61015 11.6073
lfingers 7.12502
lthumb 23.0881 40.2441
rfemur -9.33329 -0.909906 17.9264
rtibia 50.3179
rfoot 6.25078 6.10763
rtoes -10.4429
lfemur -21.8881 0.49432 -27.4953
ltibia 14.8844
lfoot -6.15975 13.6638
ltoes 11.1765
298
root -6.69222 15.9029 8.89952 9.56204 -31.9007 1.65677
lowerback -7.97659 1.9516 -0.558412
upperback -6.94637 2.51903 -1.63834
thorax -2.67662 1.21183 -1.23898
lowerneck -14.963 5.71591 12.1325
upperneck 39.1557 6.64391 -5.56024
head 17.6468 3.66166 -3.46029
rclavicle 9.90196e-014 2.66371e-014
rhumerus -41.2622 -12.1753 -72.6394
rradius 29.0909
rwrist 8.02801
rhand -10.4932 -3.51443
rfingers 7.12502
rthumb 15.5086 -32.9125
lclavicle 9.90196e-014 2.66371e-014
lhumerus -53.2153 17.6305 61.758
lradius 27.7401
lwrist -25.6451
lhand -2.61183 11.6143
lfingers 7.12502
lthumb 23.0865 40.2513
rfemur -11.0769 -0.938344 17.2526
rtibia 53.2376
rfoot 7.67521 5.74408
rtoes -9.27915
lfemur -20.625 0.840015 -28.1484
ltibia 13.6464
lfoot -5.89398 13.4768
ltoes 11.134
299
root -6.72462 15.9081 9.01623 9.15436 -32.0945 2.16792
lowerback -7.74992 1.90725 -0.97279
upperback -6.87999 2.47891 -1.71792
thorax -2.74736 1.20624 -1.09846
lowerneck -14.9773 5.79863 12.192
upperneck 39.0748 6.77356 -5.62248
head 17.63 3.71309 -3.47049
rclavicle 2.67862e-014 -6.75868e-015
rhumerus -41.3608 -12.4684 -72.245
rradius 28.6947
rwrist 8.58633
rhand -10.4944 -3.45297
rfingers 7.12502
rthumb 15.5075 -32.8511
lclavicle 2.67862e-014 -6.75868e-015
lhumerus -52.8332 17.2716 62.1944
lradius 28.0576
lwrist -25.2142
lhand -2.65971 11.6486
lfingers 7.12502
lthumb 23.0405 40.2913
rfemur -12.7694 -1.02289 16.5883
rtibia 56.012
rfoot 8.43448 5.16109
rtoes -8.29267
lfemur -19.3452 1.09931 -28.806
ltibia 12.4014
lfoot -5.62607 13.341
ltoes 11.1389
300
root -6.75689 15.9135 9.13085 8.7377 -32.2226 2.67074
lowerback -7.5009 1.84457 -1.36879
upperback -6.80659 2.41134 -1.79756
thorax -2.82256 1.18631 -0.970077
lowerneck -14.9839 5.87812 12.2457
upperneck 38.9901 6.89842 -5.67912
head 17.608 3.76243 -3.47791
rclavicle -1.3244e-014 -1.43125e-014
rhumerus -41.4443 -12.793 -71.8466
rradius 28.307
rwrist 9.20541
rhand -10.5507 -3.3675
rfingers 7.12502
rthumb 15.4533 -32.7698
lclavicle -1.3244e-014 -1.43125e-014
lhumerus -52.4064 16.8477 62.6763
lradius 28.3758
lwrist -24.7466
lhand -2.80208 11.6816
lfingers 7.12502
lthumb 22.9039 40.3413
rfemur -14.3915 -1.14774 15.9817
rtibia 58.5817
rfoot 8.49005 4.38248
rtoes -7.49929
lfemur -18.0936 1.28014 -29.4328
ltibia 11.2233
lfoot -5.3814 13.2368
ltoes 11.095
301
root -6.78919 15.9121 9.24353 8.329 -32.2626 3.13896
lowerback -7.25265 1.75907 -1.71943
upperback -6.72065 2.30994 -1.86993
thorax -2.8824 1.14794 -0.860335
lowerneck -14.9857 5.95638 12.2959
upperneck 38.9006 7.02291 -5.7362
head 17.582 3.81105 -3.48485
rclavicle -1.60096e-013 -2.76311e-014
rhumerus -41.5195 -13.0899 -71.4778
rradius 27.9712
rwrist 9.80097
rhand -10.6557 -3.32957
rfingers 7.12502
rthumb 15.3522 -32.7396
lclavicle -1.60096e-013 -2.76311e-014
lhumerus -51.9598 16.3949 63.1758
lradius 28.7154
lwrist -24.2962
lhand -3.02533 11.7113
lfingers 7.12502
lthumb 22.6897 40.3974
rfemur -15.9309 -1.33611 15.4488
rtibia 60.9367
rfoot 7.91531 3.45869
rtoes -6.70493
lfemur -16.9118 1.39502 -30.0151
ltibia 10.1906
lfoot -5.19395 13.1315
ltoes 11.0201
302
root -6.82188 15.9087 9.35323 7.99132 -32.2046 3.49579
lowerback -7.00317 1.65495 -1.97468
upperback -6.63837 2.17835 -1.9152
thorax -2.94324 1.09148 -0.77665
lowerneck -14.9734 6.02774 12.3412
upperneck 38.8077 7.14009 -5.79375
head 17.5494 3.85609 -3.4927
rclavicle -2.2239e-014 -2.38542e-014
rhumerus -41.6028 -13.3526 -71.1357
rradius 27.6981
rwrist 10.3369
rhand -10.7951 -3.30861
rfingers 7.12502
rthumb 15.2179 -32.7289
lclavicle -2.2239e-014 -2.38542e-014
lhumerus -51.5027 15.9185 63.6846
lradius 29.076
lwrist -23.8724
lhand -3.31685 11.742
lfingers 7.12502
lthumb 22.4098 40.4621
rfemur -17.4091 -1.55826 15.0735
rtibia 63.0364
rfoot 6.91976 2.40784
rtoes -5.79406
lfemur -15.8644 1.46205 -30.4829
ltibia 9.37475
lfoot -5.08764 13.0028
ltoes 10.9055
303
root -6.85519 15.9047 9.46028 7.75854 -32.0489 3.69922
lowerback -6.76382 1.53201 -2.10647
upperback -6.56238 2.01646 -1.91938
thorax -3.00091 1.01615 -0.719663
lowerneck -14.9545 6.09568 12.3849
upperneck 38.7188 7.25626 -5.85861
head 17.5176 3.89975 -3.50416
rclavicle 6.33626e-015 -2.98177e-015
rhumerus -41.6953 -13.5452 -70.8382
rradius 27.5066
rwrist 10.7488
rhand -10.9578 -3.34695
rfingers 7.12502
rthumb 15.0611 -32.7791
lclavicle 6.33626e-015 -2.98177e-015
lhumerus -51.0431 15.446 64.1896
lradius 29.4587
lwrist -23.4937
lhand -3.66135 11.7716
lfingers 7.12502
lthumb 22.0791 40.5311
rfemur -18.8412 -1.79906 14.8902
rtibia 64.8703
rfoot 5.69664 1.25246
rtoes -4.76214
lfemur -15.0491 1.45558 -30.7911
ltibia 8.94952
lfoot -5.14386 12.8864
ltoes 10.7721
304
root -6.88917 15.9006 9.56682 7.63821 -31.7946 3.75293
lowerback -6.56842 1.38927 -2.10559
upperback -6.49169 1.8246 -1.88506
thorax -3.03553 0.921548 -0.69604
lowerneck -14.9273 6.15948 12.4211
upperneck 38.6409 7.36965 -5.92316
head 17.4892 3.94154 -3.51525
rclavicle -4.18193e-014 3.18055e-015
rhumerus -41.794 -13.7101 -70.5576
rradius 27.3745
rwrist 11.0723
rhand -11.1104 -3.47834
rfingers 7.12502
rthumb 14.9141 -32.9214
lclavicle -4.18193e-014 3.18055e-015
lhumerus -50.56 14.9629 64.7038
lradius 29.825
lwrist -23.1282
lhand -4.06613 11.7941
lfingers 7.12502
lthumb 21.6905 40.599
rfemur -20.2288 -2.0432 14.889
rtibia 66.4215
rfoot 4.37787 0.0319016
rtoes -3.87828
lfemur -14.4519 1.3746 -30.9519
ltibia 8.88982
lfoot -5.35747 12.786
ltoes 10.6502
305
root -6.92393 15.8968 9.67258 7.62998 -31.4504 3.66018
lowerback -6.41407 1.22794 -1.98386
upperback -6.42981 1.60541 -1.80885
thorax -3.05368 0.809565 -0.69598
lowerneck -14.8934 6.21935 12.4531
upperneck 38.5759 7.48111 -5.99176
head 17.4663 3.98177 -3.52851
rclavicle 5.2181e-016 -1.98785e-016
rhumerus -41.9066 -13.788 -70.3243
rradius 27.3306
rwrist 11.2333
rhand -11.2497 -3.72349
rfingers 7.12502
rthumb 14.7799 -33.1765
lclavicle 5.2181e-016 -1.98785e-016
lhumerus -50.0776 14.5089 65.2011
lradius 30.2078
lwrist -22.8112
lhand -4.47963 11.8186
lfingers 7.12502
lthumb 21.2933 40.6689
rfemur -21.5776 -2.28273 15.059
rtibia 67.6844
rfoot 3.04021 -1.21606
rtoes -3.14952
lfemur -14.0447 1.21603 -30.9662
ltibia 9.12832
lfoot -5.68485 12.7156
ltoes 10.5372
